<svg width="268" height="268" viewBox="0 0 268 268" fill="none" xmlns="http://www.w3.org/2000/svg">
<path d="M134 0C113.49 -2.44584e-07 93.2529 4.70827 74.849 13.7621C56.4451 22.8159 40.3651 35.9736 27.8478 52.2215C15.3306 68.4694 6.71023 87.3739 2.65079 107.479C-1.40865 127.583 -0.798781 148.351 4.4334 168.183L7.84893 167.282C2.75467 147.973 2.16088 127.752 6.11331 108.178C10.0657 88.6031 18.4589 70.1969 30.6461 54.3773C42.8334 38.5577 58.4895 25.7468 76.4083 16.9317C94.3271 8.11654 114.03 3.53239 134 3.53239V0Z" fill="#B8EDFC"/>
<path d="M47.4853 236.329C69.0815 254.588 95.9007 265.546 124.104 267.634C152.307 269.723 180.448 262.835 204.498 247.956C228.548 233.078 247.274 210.972 257.996 184.803C268.718 158.634 270.886 129.744 264.189 102.268L260.757 103.104C267.277 129.856 265.167 157.985 254.727 183.464C244.288 208.943 226.056 230.466 202.639 244.952C179.223 259.439 151.824 266.145 124.365 264.111C96.9051 262.078 70.7928 251.409 49.7659 233.631L47.4853 236.329Z" fill="#DCF8DB"/>
</svg>
