<svg width="290" height="290" viewBox="0 0 290 290" fill="none" xmlns="http://www.w3.org/2000/svg">
<path d="M256.65 237.517C269.269 222.288 278.639 204.638 284.185 185.653C289.73 166.668 291.332 146.75 288.894 127.123C286.455 107.496 280.027 88.5748 270.005 71.5241C259.983 54.4733 246.579 39.6532 230.616 27.9751C214.654 16.297 196.472 8.00788 177.187 3.61756C157.902 -0.772757 137.924 -1.17146 118.479 2.44599C99.0348 6.06343 80.536 13.6205 64.1206 24.6525C47.7052 35.6845 33.7202 49.958 23.0258 66.5953L26.2412 68.6622C36.6537 52.4635 50.27 38.5661 66.2527 27.825C82.2354 17.0839 100.246 9.72596 119.178 6.20388C138.11 2.6818 157.562 3.06999 176.339 7.34457C195.115 11.6192 212.818 19.6898 228.359 31.06C243.901 42.4302 256.952 56.8597 266.71 73.461C276.468 90.0622 282.726 108.484 285.1 127.594C287.475 146.704 285.914 166.097 280.515 184.581C275.117 203.066 265.993 220.25 253.707 235.078L256.65 237.517Z" fill="#F9D2CD"/>
</svg>
